<?xml version="1.0" encoding="UTF-8" standalone="no"?>
<svg
   width="380.03455"
   height="541.4184"
   viewBox="0 0 100.5508 143.25029"
   version="1.1"
   id="svg5"
   xmlns="http://www.w3.org/2000/svg"
   xmlns:svg="http://www.w3.org/2000/svg"
   xmlns:rdf="http://www.w3.org/1999/02/22-rdf-syntax-ns#"
   xmlns:cc="http://creativecommons.org/ns#"
   xmlns:dc="http://purl.org/dc/elements/1.1/">
  <defs
     id="defs2" />
  <metadata
     id="metadata856">
    <rdf:RDF>
      <cc:Work
         rdf:about="">
        <dc:creator>
          <cc:Agent>
            <dc:title>Inspire Studio</dc:title>
          </cc:Agent>
        </dc:creator>
        <cc:license
           rdf:resource="http://creativecommons.org/publicdomain/zero/1.0/" />
        <dc:description>Thank you for using this artwork. Feel free to visit our page https://www.pinterest.com.au/inspirestudiobox for more designs. We wish you have a wonderful day, everyday. Amitabha</dc:description>
      </cc:Work>
      <cc:License
         rdf:about="http://creativecommons.org/publicdomain/zero/1.0/">
        <cc:permits
           rdf:resource="http://creativecommons.org/ns#Reproduction" />
        <cc:permits
           rdf:resource="http://creativecommons.org/ns#Distribution" />
        <cc:permits
           rdf:resource="http://creativecommons.org/ns#DerivativeWorks" />
      </cc:License>
    </rdf:RDF>
  </metadata>
  <g
     id="g3551"
     transform="translate(-82.016251,-60.664238)">
    <g
       id="g931"
       transform="matrix(0.89294739,0,0,0.89418911,-379.09502,215.45069)"
       style="stroke-width:1.11911">
      <g
         id="g1952"
         transform="translate(190.47143,-854.34538)"
         style="stroke-width:1.11911">
        <path
           id="path923"
           style="fill:none;stroke:#ffffff;stroke-width:8.88289;stroke-linecap:round;stroke-linejoin:round;stroke-miterlimit:4;stroke-dasharray:none;stroke-opacity:1;paint-order:fill markers stroke"
           d="m 377.93754,764.22917 v -11.03604 c 0,-5.34582 4.13015,-9.64951 9.26042,-9.64951 v 0 c 5.13027,0 9.26042,4.30369 9.26042,9.64951 v 13.63898" />
        <path
           id="path925"
           style="fill:none;stroke:#ffffff;stroke-width:8.88289;stroke-linecap:round;stroke-linejoin:round;stroke-miterlimit:4;stroke-dasharray:none;stroke-opacity:1;paint-order:fill markers stroke"
           d="m 396.45839,766.83211 v -10.99309 c 0,-5.34585 4.13014,-9.64954 9.26041,-9.64954 v 0 c 5.13027,0 9.26042,4.30369 9.26042,9.64954 v 13.59604" />
        <path
           id="path927"
           style="fill:none;stroke:#ffffff;stroke-width:8.88289;stroke-linecap:round;stroke-linejoin:round;stroke-miterlimit:4;stroke-dasharray:none;stroke-opacity:1;paint-order:fill markers stroke"
           d="m 414.97922,769.43511 v -10.95023 c 0,-5.34583 4.13015,-9.64951 9.26042,-9.64951 v 0 c 5.13027,0 9.26041,4.30368 9.26041,9.64951 v 13.55265" />
        <path
           style="fill:none;stroke:#ffffff;stroke-width:8.88291;stroke-linecap:butt;stroke-linejoin:miter;stroke-miterlimit:4;stroke-dasharray:none;stroke-opacity:1"
           d="m 433.50006,772.03753 0.57642,28.16059 c 0.76977,37.60647 -48.27427,48.36205 -73.08064,23.01489 -5.66584,-5.78936 -8.33312,-11.25624 -11.8463,-18.05231 -5.82328,-11.26486 -17.46984,-33.79457 -17.46984,-33.79457 -2.67292,-4.6296 -1.24795,-10.42177 3.195,-12.98694 v 0 c 4.44294,-2.56511 10.17159,-0.9031 12.84451,3.72655 0,0 11.69754,20.79977 11.69754,20.00465 l -2e-5,-23.39427 v -47.85629 c 0,-5.34583 4.13015,-9.64954 9.26042,-9.64954 v 0 c 5.13027,0 9.26041,4.30371 9.26041,9.64954 v 53.36923"
           id="path929" />
      </g>
    </g>
    <path
       id="path2870"
       style="fill:none;stroke:#0573e1;stroke-width:7.93753;stroke-linecap:round;stroke-linejoin:round;stroke-miterlimit:4;stroke-dasharray:none;stroke-opacity:1;paint-order:fill markers stroke"
       d="m 98.639937,89.096274 a 21.734527,21.684239 0 0 1 -0.179233,-2.779025 21.734527,21.684239 0 0 1 21.734536,-21.684246 21.734527,21.684239 0 0 1 21.73453,21.684246 v 0 a 21.734527,21.684239 0 0 1 -0.17924,2.779058" />
  </g>
</svg>
